<svg xmlns="http://www.w3.org/2000/svg" version="1.1" xmlns:xlink="http://www.w3.org/1999/xlink" xmlns:svgjs="http://svgjs.dev/svgjs" width="1000" height="1000" viewBox="0 0 1000 1000"><rect width="1000" height="1000" fill="#000000"></rect><g transform="matrix(0.7,0,0,0.7,150,150.0000123916269)"><svg viewBox="0 0 280 280" data-background-color="#161618" preserveAspectRatio="xMidYMid meet" height="1000" width="1000" xmlns="http://www.w3.org/2000/svg" xmlns:xlink="http://www.w3.org/1999/xlink"><g id="tight-bounds" transform="matrix(1,0,0,1,0,0.00000495665076982732)"><svg viewBox="0 0 280 280" height="280" width="280"><g><svg viewBox="0 0 280 280" height="280" width="280"><g><svg viewBox="0 0 280 280" height="280" width="280"><g id="textblocktransform"><svg viewBox="0 0 280 280" height="280" width="280" id="textblock"><g><svg viewBox="0 0 280 280" height="280" width="280"><g transform="matrix(1,0,0,1,90.50252531694167,102.58911797210708)"><svg viewBox="0 0 98.99494936611666 74.82176405578585" height="74.82176405578585" width="98.99494936611666"><g><svg xmlns="http://www.w3.org/2000/svg" xmlns:xlink="http://www.w3.org/1999/xlink" version="1.1" x="0" y="0" viewBox="6.5 18 86 65" enable-background="new 0 0 100 100" xml:space="preserve" height="74.82176405578585" width="98.99494936611666" class="icon-o-0" data-fill-palette-color="accent" id="o-0"><g fill="#01ff70" data-fill-palette-color="accent"><path d="M35.845 61.275l-10.72-5.09c-1.209-0.572-1.94-1.463-1.94-2.703v-0.318c0-1.24 0.731-2.131 1.94-2.704l10.72-5.089c0.381-0.191 0.731-0.318 1.177-0.318 1.018-0.031 1.94 0.859 1.94 2.004 0 0.922-0.509 1.559-1.336 1.94l-9.606 4.294 9.606 4.295c0.827 0.381 1.336 1.113 1.336 2.004 0 1.177-0.922 2.004-2.1 1.972C36.513 61.562 36.163 61.435 35.845 61.275z" fill="#ffffff" data-fill-palette-color="accent"></path><path d="M41.889 66.047l12.438-25.988c0.35-0.731 0.922-1.113 1.686-1.113 1.018 0 1.876 0.859 1.876 1.813 0 0.35-0.127 0.7-0.222 0.923L45.229 67.669c-0.35 0.731-0.922 1.113-1.686 1.113-1.018 0-1.876-0.858-1.876-1.813C41.667 66.619 41.793 66.27 41.889 66.047z" fill="#ffffff" data-fill-palette-color="accent"></path><path d="M64.155 45.371l10.72 5.089c1.208 0.573 1.94 1.464 1.94 2.704v0.318c0 1.24-0.731 2.131-1.94 2.703l-10.72 5.09c-0.381 0.191-0.731 0.318-1.177 0.318-1.018 0.031-1.94-0.859-1.94-2.004 0-0.923 0.509-1.559 1.336-1.94l9.606-4.295-9.606-4.294c-0.827-0.381-1.336-1.113-1.336-2.004 0-1.177 0.923-2.004 2.1-1.973C63.487 45.084 63.837 45.212 64.155 45.371z" fill="#ffffff" data-fill-palette-color="accent"></path></g><path d="M92.5 21c0-1.657-1.343-3-3-3h-80c-1.657 0-3 1.343-3 3v59c0 1.657 1.343 3 3 3h80c1.657 0 3-1.343 3-3V21zM26 20.833c1.196 0 2.167 0.97 2.167 2.167s-0.97 2.167-2.167 2.167-2.167-0.97-2.167-2.167S24.804 20.833 26 20.833zM20 20.833c1.196 0 2.167 0.97 2.167 2.167s-0.97 2.167-2.167 2.167-2.167-0.97-2.167-2.167S18.804 20.833 20 20.833zM14 20.833c1.196 0 2.167 0.97 2.167 2.167s-0.97 2.167-2.167 2.167-2.167-0.97-2.167-2.167S12.804 20.833 14 20.833zM88.5 79h-78V29h78V79z" fill="#ffffff" data-fill-palette-color="accent"></path></svg></g></svg></g><g><path d="M16.03 83.635c1.75 0.655 3.185 1.71 4.306 3.166 1.123 1.45 1.822 3.212 2.097 5.289 0.281 2.078 0.055 4.342-0.676 6.792v0l6.954 4.114c2.667 1.584 3.574 3.518 2.72 5.8v0c-0.469 1.254-1.272 2.273-2.409 3.056-1.143 0.781-2.593 1.207-4.349 1.279-1.763 0.07-3.758-0.312-5.985-1.145v0c-4.177-1.563-7.471-3.564-9.882-6.003-2.405-2.437-3.91-5.066-4.513-7.887-0.599-2.812-0.386-5.589 0.639-8.329v0c0.725-1.938 1.678-3.454 2.86-4.549 1.188-1.093 2.491-1.767 3.909-2.022 1.425-0.253 2.867-0.107 4.329 0.439zM18.789 97.128c1.044-4.414-0.36-7.341-4.211-8.781v0c-1.355-0.507-2.628-0.476-3.82 0.093-1.188 0.578-2.133 1.804-2.835 3.68v0c-0.793 2.12-0.816 4.216-0.069 6.29 0.753 2.076 2.159 3.985 4.216 5.727 2.055 1.748 4.607 3.193 7.655 4.333v0c1.273 0.476 2.453 0.771 3.54 0.885 1.087 0.114 1.975 0.071 2.665-0.129 0.696-0.197 1.114-0.484 1.255-0.86v0c0.192-0.514-0.371-1.168-1.69-1.962v0l-5.449-3.207c-0.426 0.756-0.61 1.087-0.554 0.993v0c-0.33 0.577-0.672 0.907-1.024 0.99-0.346 0.085-0.736 0.046-1.169-0.116v0c-0.452-0.169-0.764-0.432-0.937-0.79-0.167-0.356-0.165-0.762 0.006-1.22v0c0.077-0.207 0.144-0.357 0.201-0.451v0c0.267-0.465 0.459-0.826 0.576-1.082v0c-1.505-0.87-3.512-2.058-6.024-3.562v0c-0.649-0.386-1.042-0.855-1.179-1.406-0.134-0.558-0.09-1.135 0.133-1.73v0c0.253-0.677 0.568-1.117 0.944-1.32 0.367-0.199 0.827-0.195 1.379 0.012v0c0.332 0.124 0.595 0.244 0.788 0.359v0z" fill="#ffffff" data-fill-palette-color="primary"></path><path d="M60.426 57.806c-1.034 0.883-2.18 1.215-3.441 0.997-1.26-0.227-2.411-0.952-3.455-2.174v0c-1.139-1.334-1.912-2.862-2.318-4.584-0.401-1.727-0.396-3.391 0.015-4.993 0.407-1.607 1.185-2.901 2.336-3.884v0c0.367-0.313 0.674-0.453 0.923-0.419 0.244 0.038 0.566 0.204 0.965 0.496v0c0.295-0.366 0.633-0.712 1.015-1.039v0c0.82-0.7 1.48-0.758 1.98-0.172v0c0.296 0.346 0.884 1.288 1.766 2.825v0c1.253 2.25 2.201 3.752 2.844 4.505v0c0.213 0.249 0.449 0.396 0.706 0.44 0.253 0.039 0.479-0.026 0.678-0.196v0c0.316-0.27 0.526-0.802 0.631-1.596 0.101-0.799 0.144-1.986 0.131-3.559v0c-0.002-0.404 0.122-0.712 0.372-0.925v0c0.219-0.187 0.477-0.236 0.773-0.146 0.296 0.099 0.594 0.325 0.895 0.676v0c0.57 0.667 0.853 1.319 0.85 1.955v0c0.043 1.442-0.069 2.785-0.337 4.027-0.273 1.237-0.768 2.162-1.487 2.775v0c-0.55 0.47-1.213 0.714-1.988 0.734-0.785 0.019-1.573-0.197-2.364-0.649v0c0.33 2.139-0.166 3.774-1.49 4.906zM59.168 54.508c0.372-0.317 0.538-0.834 0.499-1.549-0.038-0.725-0.287-1.511-0.747-2.36v0l-3.016-5.402c-0.69 0.615-1.112 1.43-1.268 2.443-0.156 1.023-0.054 2.102 0.308 3.238 0.362 1.135 0.943 2.171 1.743 3.107v0c0.439 0.514 0.872 0.809 1.298 0.886 0.422 0.071 0.816-0.05 1.183-0.363z" fill="#ffffff" data-fill-palette-color="primary"></path><path d="M106.879 31.693c-0.813 0.2-1.49-0.086-2.03-0.856-0.541-0.77-1.042-2.095-1.503-3.975v0c-0.682-2.777-0.932-5.511-0.752-8.202v0c0.037-0.664 0.238-1.193 0.604-1.586 0.37-0.401 0.949-0.698 1.735-0.892v0c0.429-0.105 0.742-0.124 0.938-0.054 0.195 0.063 0.329 0.243 0.403 0.542v0c0.085 0.345 0.114 1.151 0.087 2.42v0c-0.004 0.911 0.011 1.7 0.043 2.368 0.028 0.676 0.115 1.492 0.26 2.449v0c0.252-2.006 0.676-3.692 1.271-5.059 0.587-1.371 1.244-2.405 1.97-3.1 0.724-0.702 1.437-1.139 2.139-1.311v0c1.385-0.34 2.248 0.186 2.59 1.577v0c0.067 0.273 0.138 0.969 0.213 2.089v0c0.034 0.895 0.077 1.45 0.129 1.664v0c0.184 0.748 0.545 1.055 1.085 0.923v0c0.592-0.145 1.243-0.805 1.955-1.979v0c0.211-0.348 0.463-0.558 0.755-0.631v0c0.28-0.069 0.531 0.001 0.755 0.208 0.217 0.209 0.375 0.515 0.473 0.918v0c0.195 0.793 0.136 1.466-0.176 2.019v0c-0.447 0.765-1.016 1.463-1.71 2.095-0.693 0.632-1.488 1.058-2.385 1.278v0c-1.131 0.278-2.06 0.202-2.786-0.226-0.734-0.433-1.221-1.141-1.462-2.123v0c-0.078-0.319-0.124-0.645-0.137-0.98v0c-0.06-0.44-0.108-0.735-0.145-0.885v0c-0.083-0.338-0.242-0.478-0.476-0.421v0c-0.325 0.08-0.66 0.541-1.004 1.385-0.353 0.838-0.638 1.908-0.857 3.209-0.225 1.303-0.337 2.644-0.336 4.023v0c0.012 1.059-0.095 1.802-0.322 2.23-0.226 0.428-0.667 0.722-1.324 0.883z" fill="#ffffff" data-fill-palette-color="primary"></path><path d="M178.507 25.194c0.28 0.065 0.473 0.244 0.576 0.536 0.096 0.297 0.092 0.671-0.012 1.121v0c-0.198 0.854-0.554 1.47-1.067 1.846v0c-1.248 0.906-2.476 1.605-3.682 2.094-1.205 0.483-2.473 0.571-3.804 0.263v0c-1.089-0.253-1.842-0.757-2.257-1.514-0.408-0.761-0.472-1.742-0.194-2.942v0c0.139-0.6 0.537-1.635 1.194-3.105v0c0.594-1.285 0.95-2.185 1.07-2.7v0c0.079-0.339-0.003-0.537-0.244-0.593v0c-0.274-0.064-0.752 0.204-1.434 0.802-0.68 0.591-1.415 1.418-2.204 2.478-0.783 1.063-1.488 2.208-2.117 3.438v0c-0.801 1.615-2.003 2.237-3.608 1.864v0c-0.646-0.15-1.017-0.476-1.113-0.98-0.095-0.51-0.003-1.365 0.276-2.565v0c0.159-0.685 0.295-1.227 0.408-1.627v0l0.636-2.564c0.764-3.294 1.896-6.65 3.397-10.069 1.501-3.419 3.192-6.192 5.075-8.319 1.882-2.127 3.743-2.978 5.582-2.551v0c0.985 0.228 1.686 0.838 2.102 1.828 0.41 0.989 0.458 2.158 0.145 3.508v0c-0.501 2.159-1.65 4.254-3.448 6.284-1.804 2.029-4.488 4.265-8.052 6.71v0c-0.324 1.1-0.623 2.241-0.896 3.422v0c1.127-1.656 2.257-2.958 3.39-3.905 1.134-0.947 2.181-1.566 3.143-1.859 0.956-0.301 1.79-0.368 2.501-0.204v0c1.389 0.322 1.922 1.181 1.598 2.577v0c-0.194 0.835-0.779 2.29-1.755 4.367v0c-0.842 1.764-1.333 2.946-1.472 3.546v0c-0.198 0.854 0.016 1.354 0.642 1.499v0c0.424 0.098 0.99-0.045 1.698-0.431 0.716-0.391 1.703-1.059 2.96-2.004v0c0.324-0.241 0.646-0.324 0.966-0.251zM173.572 3.13c-0.385-0.089-0.94 0.363-1.665 1.356-0.725 0.993-1.524 2.379-2.397 4.156-0.878 1.769-1.709 3.724-2.495 5.865v0c1.687-1.258 3.178-2.707 4.472-4.344 1.294-1.638 2.115-3.207 2.463-4.708v0c0.159-0.685 0.206-1.227 0.14-1.627-0.065-0.4-0.238-0.633-0.518-0.698z" fill="#ffffff" data-fill-palette-color="primary"></path><path d="M213.651 52.77c-1.037-0.879-1.549-1.958-1.536-3.236 0.023-1.28 0.553-2.533 1.592-3.759v0c1.134-1.338 2.519-2.346 4.155-3.023 1.641-0.672 3.284-0.934 4.93-0.785 1.651 0.144 3.054 0.705 4.208 1.684v0c0.368 0.312 0.555 0.593 0.562 0.844 0.001 0.247-0.11 0.591-0.335 1.033v0c0.409 0.232 0.805 0.511 1.188 0.835v0c0.822 0.697 0.985 1.339 0.486 1.927v0c-0.294 0.347-1.129 1.079-2.505 2.195v0c-2.02 1.597-3.351 2.773-3.991 3.529v0c-0.212 0.25-0.319 0.506-0.322 0.768 0.002 0.256 0.103 0.469 0.303 0.638v0c0.317 0.268 0.876 0.391 1.676 0.367 0.805-0.028 1.983-0.176 3.534-0.441v0c0.398-0.066 0.723 0.007 0.973 0.219v0c0.22 0.186 0.309 0.433 0.268 0.74-0.051 0.308-0.225 0.639-0.524 0.991v0c-0.567 0.669-1.165 1.053-1.794 1.153v0c-1.417 0.274-2.76 0.378-4.029 0.311-1.265-0.071-2.257-0.412-2.977-1.022v0c-0.552-0.468-0.899-1.083-1.043-1.845-0.145-0.772-0.057-1.584 0.261-2.438v0c-2.059 0.669-3.752 0.441-5.08-0.685zM216.704 51c0.373 0.316 0.909 0.398 1.61 0.245 0.709-0.154 1.446-0.526 2.209-1.116v0l4.849-3.842c-0.718-0.582-1.59-0.869-2.615-0.86-1.035 0.009-2.084 0.284-3.146 0.822-1.062 0.539-1.992 1.279-2.788 2.219v0c-0.437 0.516-0.659 0.99-0.666 1.423-0.003 0.428 0.18 0.798 0.547 1.109z" fill="#ffffff" data-fill-palette-color="primary"></path><path d="M246.619 94.233c-0.299-0.782-0.1-1.489 0.597-2.121 0.697-0.632 1.949-1.295 3.756-1.986v0c2.67-1.022 5.352-1.611 8.046-1.767v0c0.663-0.046 1.213 0.088 1.648 0.401 0.444 0.318 0.811 0.855 1.101 1.612v0c0.158 0.413 0.215 0.721 0.171 0.924-0.038 0.201-0.201 0.356-0.489 0.466v0c-0.331 0.127-1.128 0.256-2.389 0.388v0c-0.904 0.11-1.683 0.221-2.335 0.334-0.648 0.105-1.441 0.29-2.379 0.556v0c1.812-0.062 3.418 0.079 4.819 0.424 1.41 0.349 2.541 0.823 3.394 1.422 0.855 0.605 1.42 1.267 1.696 1.986v0c0.275 0.719 0.303 1.289 0.084 1.71-0.21 0.425-0.656 0.767-1.338 1.028v0c-0.657 0.251-1.92 0.509-3.79 0.774v0c-0.806 0.122-1.406 0.223-1.799 0.301v0c2.921 0.065 5.197 0.503 6.826 1.313 1.629 0.81 2.652 1.76 3.068 2.847v0c0.51 1.332 0.096 2.254-1.242 2.767v0c-0.8 0.306-2.334 0.635-4.602 0.986v0c-1.931 0.294-3.184 0.552-3.759 0.772v0c-0.819 0.314-1.115 0.767-0.888 1.362v0c0.158 0.413 0.595 0.805 1.311 1.176 0.722 0.369 1.826 0.81 3.313 1.323v0c0.383 0.14 0.634 0.363 0.751 0.67v0c0.101 0.263 0.059 0.519-0.125 0.769-0.19 0.252-0.501 0.461-0.933 0.625v0c-0.819 0.314-1.529 0.359-2.13 0.138v0c-1.426-0.465-2.682-1.07-3.771-1.815-1.084-0.754-1.874-1.778-2.369-3.072v0c-0.4-1.044-0.401-1.947-0.004-2.709 0.401-0.77 1.176-1.375 2.327-1.815v0c0.575-0.22 1.656-0.469 3.242-0.746v0c1.397-0.227 2.343-0.434 2.837-0.624v0c0.325-0.124 0.445-0.299 0.358-0.524v0c-0.103-0.269-0.593-0.519-1.47-0.75-0.868-0.227-1.963-0.371-3.283-0.431-1.321-0.061-2.665-0.005-4.034 0.167v0c-1.068 0.151-1.825 0.139-2.271-0.034-0.44-0.176-0.786-0.592-1.037-1.249v0c-0.258-0.675-0.13-1.305 0.384-1.889 0.515-0.584 1.235-1.053 2.161-1.408v0c0.782-0.299 1.95-0.628 3.505-0.986v0c1.375-0.34 2.27-0.589 2.682-0.747v0c0.325-0.124 0.445-0.299 0.358-0.524v0c-0.12-0.313-0.638-0.562-1.555-0.749-0.917-0.187-2.036-0.282-3.357-0.286-1.321-0.004-2.585 0.075-3.792 0.236v0c-1.049 0.143-1.8 0.13-2.253-0.041-0.453-0.171-0.8-0.572-1.041-1.204z" fill="#ffffff" data-fill-palette-color="primary"></path><path d="M40.503 202.212c-1.918 0.74-3.871 0.923-5.859 0.55-1.989-0.374-3.859-1.313-5.61-2.819-1.751-1.506-3.222-3.533-4.414-6.081v0l-8.725 1.688c-3.359 0.65-5.523-0.28-6.493-2.791v0c-0.533-1.381-0.617-2.808-0.253-4.283 0.364-1.475 1.248-2.886 2.651-4.232 1.402-1.352 3.321-2.498 5.757-3.438v0c4.591-1.772 8.772-2.535 12.542-2.289 3.77 0.246 6.933 1.311 9.49 3.195 2.557 1.884 4.416 4.328 5.575 7.333v0c0.82 2.124 1.14 4.071 0.963 5.84-0.172 1.767-0.752 3.276-1.742 4.527-0.983 1.248-2.277 2.181-3.882 2.8zM28.35 193.123c2.374 4.402 5.675 5.787 9.904 4.155v0c1.487-0.574 2.512-1.533 3.078-2.878 0.559-1.342 0.44-3.044-0.356-5.106v0c-0.897-2.324-2.413-4.068-4.549-5.231-2.142-1.161-4.696-1.708-7.663-1.64-2.973 0.071-6.133 0.752-9.481 2.045v0c-1.399 0.54-2.588 1.16-3.567 1.86-0.972 0.698-1.673 1.385-2.101 2.06-0.429 0.675-0.564 1.215-0.408 1.622v0c0.217 0.562 1.163 0.689 2.838 0.379v0l6.834-1.345c-0.205-0.94-0.297-1.346-0.276-1.218v0c-0.15-0.724-0.112-1.249 0.114-1.573 0.229-0.318 0.581-0.569 1.056-0.751v0c0.5-0.193 0.951-0.205 1.352-0.038 0.402 0.168 0.7 0.502 0.893 1.001v0c0.087 0.225 0.139 0.398 0.158 0.521v0c0.122 0.577 0.228 1.017 0.316 1.32v0c1.875-0.386 4.398-0.879 7.568-1.478v0c0.821-0.159 1.49-0.062 2.007 0.291 0.513 0.362 0.896 0.871 1.149 1.527v0c0.287 0.743 0.354 1.335 0.2 1.774-0.156 0.433-0.54 0.768-1.151 1.005v0c-0.362 0.14-0.664 0.231-0.907 0.274v0z" fill="#ffffff" data-fill-palette-color="primary"></path><path d="M50.12 247.629c-1.154-0.969-1.723-2.16-1.708-3.573 0.02-1.408 0.598-2.79 1.735-4.143v0c1.245-1.482 2.765-2.6 4.563-3.355 1.798-0.746 3.609-1.044 5.433-0.894 1.814 0.151 3.362 0.765 4.644 1.842v0c0.41 0.345 0.618 0.654 0.622 0.93 0.009 0.27-0.112 0.649-0.364 1.136v0c0.454 0.25 0.894 0.554 1.32 0.912v0c0.908 0.762 1.088 1.469 0.541 2.12v0c-0.327 0.39-1.245 1.201-2.754 2.435v0c-2.217 1.776-3.677 3.081-4.379 3.917v0c-0.233 0.277-0.351 0.558-0.354 0.844 0.001 0.28 0.114 0.515 0.339 0.704v0c0.349 0.293 0.966 0.422 1.852 0.388 0.881-0.029 2.176-0.196 3.884-0.502v0c0.445-0.072 0.806 0.008 1.083 0.241v0c0.241 0.202 0.336 0.475 0.285 0.817-0.047 0.337-0.234 0.7-0.561 1.089v0c-0.624 0.743-1.284 1.169-1.977 1.277v0c-1.556 0.311-3.03 0.432-4.424 0.364-1.403-0.068-2.502-0.436-3.297-1.104v0c-0.615-0.517-1.002-1.196-1.161-2.037-0.16-0.851-0.064-1.746 0.287-2.684v0c-2.278 0.745-4.148 0.503-5.609-0.724zM53.477 245.662c0.405 0.34 0.997 0.427 1.776 0.258 0.774-0.172 1.581-0.587 2.423-1.244v0l5.333-4.257c-0.797-0.634-1.762-0.947-2.898-0.938-1.134 0.018-2.286 0.327-3.455 0.928-1.165 0.596-2.184 1.414-3.059 2.455v0c-0.482 0.574-0.724 1.097-0.726 1.567-0.006 0.476 0.196 0.886 0.606 1.231z" fill="#ffffff" data-fill-palette-color="primary"></path><path d="M102.682 276.719c-0.898-0.218-1.414-0.843-1.549-1.876-0.137-1.025 0.047-2.576 0.552-4.651v0c0.743-3.058 1.885-5.857 3.426-8.397v0c0.374-0.633 0.841-1.05 1.4-1.252 0.565-0.2 1.284-0.194 2.156 0.018v0c0.468 0.114 0.783 0.252 0.943 0.415 0.16 0.163 0.2 0.41 0.12 0.742v0c-0.092 0.377-0.476 1.18-1.154 2.407v0c-0.464 0.886-0.85 1.668-1.159 2.344-0.314 0.668-0.645 1.507-0.995 2.518v0c1.273-1.834 2.545-3.268 3.816-4.303 1.271-1.035 2.439-1.712 3.502-2.032 1.062-0.314 1.983-0.376 2.764-0.186v0c1.529 0.372 2.108 1.322 1.736 2.851v0c-0.074 0.306-0.362 1.021-0.863 2.147v0c-0.418 0.898-0.655 1.463-0.712 1.697v0c-0.201 0.826-0.005 1.311 0.586 1.456v0c0.657 0.16 1.629-0.152 2.915-0.935v0c0.382-0.238 0.738-0.317 1.07-0.236v0c0.306 0.074 0.513 0.269 0.623 0.585 0.109 0.316 0.11 0.695 0.002 1.138v0c-0.212 0.872-0.612 1.498-1.2 1.879v0c-0.823 0.523-1.736 0.918-2.738 1.184-1.003 0.273-2 0.289-2.989 0.049v0c-1.243-0.302-2.112-0.851-2.607-1.647-0.489-0.794-0.602-1.731-0.34-2.811v0c0.087-0.358 0.206-0.705 0.356-1.04v0c0.166-0.456 0.269-0.765 0.308-0.928v0c0.092-0.377 0.007-0.598-0.253-0.661v0c-0.351-0.085-0.912 0.195-1.682 0.842-0.77 0.646-1.596 1.548-2.477 2.705-0.874 1.159-1.665 2.414-2.373 3.765v0c-0.523 1.044-1.003 1.717-1.441 2.016-0.433 0.308-1.014 0.374-1.743 0.197z" fill="#ffffff" data-fill-palette-color="primary"></path><path d="M179.327 267.807c0.307-0.07 0.581 0.018 0.823 0.265 0.24 0.24 0.417 0.609 0.53 1.105v0c0.216 0.947 0.158 1.729-0.175 2.348v0c-0.798 1.501-1.679 2.784-2.645 3.848-0.959 1.064-2.173 1.763-3.642 2.099v0c-1.201 0.274-2.188 0.132-2.961-0.427-0.772-0.552-1.309-1.49-1.611-2.816v0c-0.15-0.659-0.257-1.878-0.319-3.656v0c-0.033-1.558-0.113-2.618-0.242-3.18v0c-0.086-0.379-0.257-0.539-0.511-0.481v0c-0.307 0.07-0.654 0.565-1.042 1.485-0.388 0.919-0.717 2.094-0.988 3.522-0.271 1.429-0.419 2.905-0.443 4.428v0c-0.02 1.989-0.914 3.186-2.683 3.589v0c-0.712 0.162-1.236 0.014-1.575-0.444-0.337-0.452-0.656-1.341-0.958-2.666v0c-0.173-0.757-0.301-1.363-0.384-1.818v0l-0.607-2.839c-0.83-3.636-1.323-7.51-1.478-11.623-0.157-4.119 0.184-7.682 1.022-10.69 0.843-3.015 2.28-4.754 4.31-5.217v0c1.084-0.247 2.071 0.018 2.964 0.797 0.885 0.78 1.498 1.914 1.837 3.402v0c0.544 2.383 0.41 5.016-0.401 7.901-0.806 2.876-2.389 6.386-4.747 10.53v0c0.208 1.244 0.461 2.515 0.757 3.814v0c0.319-2.181 0.815-4.015 1.486-5.5 0.666-1.477 1.403-2.597 2.21-3.359 0.81-0.755 1.603-1.221 2.38-1.398v0c1.541-0.352 2.486 0.24 2.836 1.774v0c0.21 0.92 0.329 2.645 0.357 5.173v0c0.019 2.159 0.103 3.568 0.254 4.227v0c0.216 0.947 0.667 1.342 1.352 1.186v0c0.47-0.107 0.965-0.526 1.485-1.256 0.515-0.722 1.17-1.857 1.964-3.405v0c0.205-0.397 0.487-0.636 0.845-0.718zM163.804 248.314c-0.424 0.097-0.758 0.815-1.002 2.155-0.239 1.332-0.363 3.088-0.374 5.267-0.019 2.175 0.096 4.514 0.345 7.02v0c1.075-2.059 1.858-4.212 2.348-6.46 0.495-2.256 0.554-4.209 0.177-5.861v0c-0.173-0.757-0.39-1.316-0.65-1.675-0.256-0.367-0.537-0.516-0.844-0.446z" fill="#ffffff" data-fill-palette-color="primary"></path><path d="M223.264 253.158c-1.158 0.964-2.431 1.314-3.819 1.049-1.383-0.269-2.64-1.083-3.77-2.442v0c-1.238-1.487-2.07-3.182-2.495-5.084-0.416-1.902-0.388-3.737 0.082-5.505 0.47-1.759 1.348-3.174 2.635-4.245v0c0.412-0.343 0.753-0.492 1.025-0.449 0.267 0.039 0.619 0.225 1.054 0.56v0c0.327-0.403 0.704-0.782 1.131-1.137v0c0.911-0.758 1.638-0.811 2.182-0.158v0c0.326 0.391 0.962 1.438 1.91 3.142v0c1.355 2.496 2.382 4.164 3.08 5.002v0c0.231 0.278 0.487 0.444 0.767 0.498 0.276 0.049 0.527-0.021 0.754-0.209v0c0.35-0.291 0.586-0.876 0.709-1.754 0.127-0.873 0.192-2.177 0.194-3.911v0c0.008-0.451 0.151-0.792 0.429-1.024v0c0.242-0.201 0.527-0.247 0.854-0.136 0.323 0.106 0.648 0.354 0.973 0.745v0c0.621 0.746 0.923 1.47 0.906 2.173v0c0.031 1.586-0.111 3.059-0.425 4.418-0.315 1.369-0.872 2.385-1.669 3.05v0c-0.618 0.514-1.354 0.775-2.211 0.782-0.866 0.006-1.73-0.246-2.591-0.758v0c0.33 2.374-0.239 4.172-1.705 5.393zM221.922 249.505c0.407-0.338 0.596-0.906 0.569-1.702-0.032-0.792-0.298-1.66-0.796-2.605v0l-3.245-6.002c-0.765 0.672-1.244 1.567-1.437 2.686-0.183 1.12-0.083 2.308 0.302 3.565 0.38 1.252 1.005 2.4 1.875 3.445v0c0.48 0.576 0.951 0.907 1.414 0.992 0.467 0.09 0.907-0.036 1.318-0.379z" fill="#ffffff" data-fill-palette-color="primary"></path><path d="M261.165 206.178c-0.34 0.859-1.03 1.285-2.071 1.276-1.035-0.006-2.545-0.402-4.531-1.188v0c-2.926-1.158-5.541-2.674-7.845-4.55v0c-0.575-0.458-0.924-0.977-1.047-1.559-0.12-0.588-0.016-1.299 0.315-2.133v0c0.177-0.448 0.358-0.741 0.541-0.877 0.183-0.136 0.434-0.142 0.751-0.016v0c0.361 0.143 1.103 0.634 2.225 1.474v0c0.814 0.581 1.528 1.069 2.143 1.464 0.612 0.401 1.395 0.843 2.348 1.328v0c-1.514-1.305-2.714-2.622-3.6-3.951-0.882-1.321-1.445-2.545-1.691-3.672-0.246-1.127-0.212-2.086 0.101-2.876v0c0.31-0.785 0.711-1.27 1.203-1.458 0.489-0.181 1.104-0.125 1.846 0.168v0c0.722 0.286 1.946 1.015 3.671 2.187v0c0.738 0.501 1.296 0.865 1.673 1.094v0c-2.325-2.223-3.845-4.268-4.561-6.135-0.72-1.876-0.843-3.412-0.37-4.607v0c0.579-1.463 1.6-1.905 3.063-1.327v0c0.878 0.347 2.367 1.224 4.468 2.631v0c1.794 1.199 3.005 1.923 3.634 2.172v0c0.903 0.357 1.484 0.209 1.742-0.445v0c0.177-0.448 0.111-1.09-0.2-1.926-0.302-0.839-0.868-2.021-1.698-3.544v0c-0.209-0.4-0.247-0.767-0.114-1.104v0c0.116-0.293 0.344-0.469 0.685-0.529 0.334-0.062 0.738 0 1.211 0.188v0c0.903 0.357 1.516 0.845 1.841 1.462v0c0.811 1.444 1.379 2.875 1.704 4.293 0.325 1.417 0.207 2.836-0.355 4.256v0c-0.456 1.152-1.132 1.889-2.03 2.21-0.892 0.324-1.969 0.236-3.233-0.264v0c-0.629-0.249-1.693-0.853-3.193-1.813v0c-1.304-0.854-2.224-1.387-2.759-1.599v0c-0.361-0.143-0.591-0.09-0.689 0.159v0c-0.116 0.293 0.096 0.859 0.635 1.699 0.542 0.833 1.325 1.766 2.349 2.798 1.025 1.032 2.159 1.988 3.402 2.868v0c0.979 0.675 1.583 1.249 1.814 1.722 0.233 0.467 0.207 1.061-0.079 1.783v0c-0.293 0.741-0.868 1.158-1.726 1.251-0.858 0.093-1.794-0.062-2.809-0.463v0c-0.853-0.337-2.047-0.943-3.58-1.816v0c-1.369-0.743-2.278-1.204-2.727-1.381v0c-0.361-0.143-0.59-0.093-0.685 0.15v0c-0.135 0.342 0.099 0.932 0.704 1.769 0.605 0.837 1.443 1.748 2.515 2.734 1.066 0.983 2.151 1.862 3.256 2.638v0c0.962 0.662 1.562 1.23 1.799 1.705 0.246 0.472 0.23 1.056-0.046 1.754z" fill="#ffffff" data-fill-palette-color="primary"></path><path d="M1.607 146.1c0-6.539 5.301-11.84 11.84-11.84 6.539 0 11.84 5.301 11.84 11.84 0 6.539-5.301 11.84-11.84 11.84-6.539 0-11.84-5.301-11.84-11.84z" fill="#ffffff" data-fill-palette-color="primary"></path><path d="M254.713 146.1c0-6.539 5.301-11.84 11.84-11.84 6.539 0 11.84 5.301 11.84 11.84 0 6.539-5.301 11.84-11.84 11.84-6.539 0-11.84-5.301-11.84-11.84z" fill="#ffffff" data-fill-palette-color="primary"></path></g></svg></g></svg></g></svg></g></svg></g><defs></defs></svg><rect width="280" height="280" fill="none" stroke="none" visibility="hidden"></rect></g></svg></g></svg>